# xmcd CD database file
#
# Track frame offsets:
#	225
#	29221
#	54249
#	86480
#	112424
#	124772
#	148804
#	169633
#	183497
#	209211
#	221709
#	239935
#	264406
#
# Disc length: 3737 seconds
#
# Revision: 2
# Processed by: cddbd v1.5.2PL0 Copyright (c) Steve Scherf et al.
# Submitted via: CDex 1.70beta2
#
DISCID=d90e960d
DTITLE=Jan Spálený - Průhlednej chlap
DYEAR=1995
DGENRE=Blues
TTITLE0=Přišel jsem na svět dřív
TTITLE1=Stokrát
TTITLE2=Blues pro zrzavou kočku
TTITLE3=Suzanna
TTITLE4=Ocúny
TTITLE5=Pořádný blues
TTITLE6=Má jenom jeden
TTITLE7=Jako každej den
TTITLE8=Jablko na doma
TTITLE9=Krize středního věku
TTITLE10=Známosti
TTITLE11=Strojvůdce Příhoda (Cassey Jones)
TTITLE12=Průhlednej chlap
EXTD=YEAR: 1995
EXTT0=
EXTT1=
EXTT2=
EXTT3=
EXTT4=
EXTT5=
EXTT6=
EXTT7=
EXTT8=
EXTT9=
EXTT10=
EXTT11=
EXTT12=
PLAYORDER=
